<svg width="119" height="48" viewBox="0 0 119 48" fill="none" xmlns="http://www.w3.org/2000/svg">
<path fill-rule="evenodd" clip-rule="evenodd" d="M81.9333 15.9895C78.7646 6.68945 69.9546 0 59.5821 0C49.2097 0 40.3997 6.68945 37.231 15.9895H38.8623C41.9646 7.55434 50.0707 1.53747 59.5821 1.53747C69.0936 1.53747 77.1997 7.55434 80.3019 15.9895H81.9333ZM39.705 33.2092C43.276 40.588 50.8348 45.677 59.5821 45.677C68.3295 45.677 75.8883 40.588 79.4593 33.2092H81.1549C77.4761 41.4618 69.201 47.2145 59.5821 47.2145C49.9633 47.2145 41.6881 41.4618 38.0094 33.2092H39.705Z" fill="white"/>
<path d="M16.4028 21.7162H14.794V28.8345H16.4028V25.2753C16.4028 24.6062 16.6163 24.0225 17.0149 23.6239C17.3709 23.268 17.8691 23.0544 18.4955 23.0544C19.0223 23.0544 19.4067 23.1825 19.6772 23.453C19.9904 23.7662 20.1185 24.2503 20.1328 24.8767V28.8345H21.7415V24.5493C21.7415 23.6096 21.4568 22.8551 20.93 22.3283C20.4317 21.8443 19.7341 21.5596 18.8515 21.5596C17.8834 21.5596 17.1146 21.887 16.5594 22.428C16.5024 22.4992 16.4597 22.5561 16.4028 22.6131V21.7162ZM27.0477 29.0053C28.1012 29.0053 29.0551 28.5782 29.7384 27.9091C30.4076 27.2257 30.8204 26.3004 30.8204 25.2753C30.8204 24.2503 30.4076 23.3249 29.7527 22.6558C29.0693 21.9724 28.1297 21.5596 27.1047 21.5596C26.0227 21.5596 25.0688 21.9582 24.3713 22.6558C23.7021 23.3249 23.2893 24.2503 23.2893 25.2753C23.2893 26.3004 23.7021 27.2257 24.3713 27.9091C25.0404 28.5925 25.9942 29.0053 27.0477 29.0053ZM27.0477 27.5105C26.4213 27.5105 25.8946 27.2969 25.5244 26.9125C25.1258 26.5139 24.898 25.9444 24.898 25.2753C24.898 24.6204 25.1258 24.0367 25.5244 23.6524C25.8946 23.268 26.4071 23.0544 27.0477 23.0544C27.6884 23.0544 28.2294 23.268 28.5995 23.6524C28.9981 24.0367 29.2117 24.6062 29.2117 25.2753C29.2117 25.9302 28.9839 26.5139 28.5853 26.9125C28.2009 27.2827 27.6884 27.5105 27.0477 27.5105ZM33.1748 21.7162H31.5803L33.6019 28.8345H35.7232L36.378 26.5566L37.2322 23.0971H37.2749L38.1291 26.5566L38.784 28.8345H40.9053L42.9269 21.7162H41.3324L40.7487 23.8232L39.8233 27.1973L38.9122 23.8232L38.3 21.7162H36.2072L35.595 23.8232L34.6839 27.2115L33.7585 23.8232L33.1748 21.7162ZM48.8335 20.1786C49.1467 20.1786 49.4172 20.0647 49.6023 19.8797C49.7874 19.6946 49.887 19.4526 49.887 19.1678C49.887 18.8973 49.7874 18.6695 49.6165 18.4845C49.4314 18.2994 49.1325 18.1855 48.8335 18.1855C48.5345 18.1855 48.264 18.3136 48.079 18.4987C47.8939 18.6838 47.7942 18.9116 47.7942 19.1678C47.7942 19.4526 47.9081 19.7088 48.0932 19.8797C48.2783 20.0647 48.5345 20.1786 48.8335 20.1786ZM49.645 21.7162H48.0363V28.8345H49.645V21.7162ZM53.5514 21.7162H51.9426V28.8345H53.5514V25.2753C53.5514 24.6062 53.7649 24.0225 54.1636 23.6239C54.5195 23.268 55.0177 23.0544 55.6442 23.0544C56.1709 23.0544 56.5553 23.1825 56.8258 23.453C57.139 23.7662 57.2671 24.2503 57.2814 24.8767V28.8345H58.8901V24.5493C58.8901 23.6096 58.6054 22.8551 58.0786 22.3283C57.5803 21.8443 56.8827 21.5596 56.0001 21.5596C55.032 21.5596 54.2632 21.887 53.708 22.428C53.651 22.4992 53.6083 22.5561 53.5514 22.6131V21.7162ZM65.0455 26.8271L64.1059 27.8664C64.9032 28.6067 65.9852 29.0053 67.1241 29.0053C68.1349 29.0053 68.9606 28.7063 69.4731 28.1796C69.829 27.8237 70.0426 27.3539 70.0426 26.8129C70.0426 26.3146 69.8575 25.8733 69.5016 25.5173C69.1314 25.1472 68.562 24.8482 67.7932 24.6204L66.7255 24.3072C66.455 24.2218 66.2556 24.1079 66.1275 23.9798C65.9994 23.8517 65.9424 23.7093 65.9424 23.5669C65.9424 23.4246 65.9852 23.3107 66.0848 23.211C66.2841 23.0259 66.64 22.9263 67.1098 22.9263C67.779 22.9263 68.4196 23.1398 68.9464 23.5385L69.829 22.428C69.1314 21.887 68.1776 21.5596 67.181 21.5596C66.2272 21.5596 65.4442 21.8585 64.9459 22.3568C64.59 22.7127 64.3907 23.1683 64.3907 23.6666C64.3907 24.1506 64.5757 24.5635 64.9174 24.9052C65.2449 25.2326 65.7289 25.5031 66.3695 25.6739L67.4515 25.9872C67.8786 26.101 68.1634 26.2149 68.3342 26.3858C68.4481 26.4997 68.505 26.642 68.505 26.8129C68.505 26.998 68.4338 27.1546 68.3057 27.2827C68.0922 27.5105 67.6935 27.6386 67.1953 27.6386C66.4265 27.6386 65.615 27.3254 65.0455 26.8271ZM73.3078 21.7162H71.699V32.3936H73.3078V27.9376C73.3505 28.0088 73.4217 28.0799 73.4786 28.1511C73.9769 28.6352 74.8311 29.0053 75.7565 29.0053C76.6961 29.0053 77.5076 28.6494 78.0913 28.0657C78.7746 27.3823 79.1732 26.3858 79.1732 25.2753C79.1732 24.1649 78.7746 23.1825 78.0913 22.5134C77.5076 21.9297 76.7103 21.5596 75.7565 21.5596C74.6887 21.5596 73.863 21.9582 73.3078 22.6131V21.7162ZM75.4005 27.5105C74.7741 27.5105 74.2331 27.2969 73.863 26.9125C73.4644 26.5139 73.2366 25.9444 73.2366 25.2753C73.2366 24.6347 73.4644 24.0652 73.863 23.6524C74.2474 23.2822 74.7599 23.0544 75.4005 23.0544C76.027 23.0544 76.5537 23.268 76.9381 23.6524C77.3367 24.051 77.5645 24.6062 77.5645 25.2753C77.5645 25.9444 77.3367 26.5139 76.9381 26.9125C76.5537 27.2827 76.027 27.5105 75.4005 27.5105ZM83.7498 29.0053C84.8317 29.0053 85.6432 28.5925 86.2127 27.9376V28.8345H87.8214V21.7162H86.2127V22.6131C85.6432 21.9582 84.8317 21.5596 83.7498 21.5596C82.8101 21.5596 81.9986 21.9155 81.4007 22.4992C80.7458 23.1683 80.3472 24.1364 80.3472 25.2753C80.3472 26.3715 80.7458 27.3823 81.4292 28.0799C82.0129 28.6636 82.8101 29.0053 83.7498 29.0053ZM84.1199 27.5105C83.4935 27.5105 82.9667 27.2827 82.5823 26.9125C82.198 26.5281 81.9559 25.9729 81.9559 25.3323C81.9559 24.6489 82.1553 24.0652 82.5681 23.6666C82.9383 23.2964 83.4793 23.0544 84.1199 23.0544C84.7605 23.0544 85.2873 23.268 85.6575 23.6524C86.0418 24.0367 86.2696 24.6062 86.2839 25.2753C86.2696 25.9302 86.0561 26.5139 85.6432 26.9125C85.2731 27.2827 84.7605 27.5105 84.1199 27.5105ZM89.5648 25.2753C89.5648 26.3004 89.9777 27.2257 90.6468 27.8949C91.3302 28.5782 92.284 29.0053 93.366 29.0053C94.9463 29.0053 95.9286 28.1938 96.3984 27.6671L95.2737 26.6563C94.9036 27.0264 94.2772 27.5105 93.3802 27.5105C92.7111 27.5105 92.1701 27.2827 91.7857 26.8983C91.4014 26.5139 91.1736 25.9444 91.1736 25.2753C91.1736 24.6204 91.3871 24.051 91.7857 23.6666C92.1701 23.2822 92.7111 23.0544 93.3802 23.0544C94.2487 23.0544 94.8893 23.51 95.288 23.9371L96.4696 22.9975L96.2418 22.7554C95.7008 22.2145 94.7754 21.5596 93.366 21.5596C92.284 21.5596 91.3302 21.9867 90.6468 22.67C89.9777 23.3391 89.5648 24.2503 89.5648 25.2753ZM97.5312 25.2753C97.5312 26.3431 97.9299 27.2684 98.5847 27.9376C99.2681 28.6067 100.222 29.0053 101.304 29.0053C102.471 29.0053 103.354 28.6067 104.151 27.8237C104.222 27.7383 104.294 27.6528 104.365 27.5817L103.169 26.5993C103.126 26.6563 103.069 26.7275 102.998 26.7844C102.656 27.1403 102.101 27.5105 101.304 27.5105C100.678 27.5105 100.151 27.3112 99.7664 26.9268C99.4816 26.642 99.2823 26.2719 99.1969 25.8306H104.749C104.778 25.6455 104.792 25.4604 104.792 25.2753C104.792 24.1649 104.393 23.1968 103.724 22.5277C103.126 21.9155 102.3 21.5596 101.304 21.5596C100.25 21.5596 99.2966 21.9867 98.6132 22.67C97.9441 23.3249 97.5312 24.2503 97.5312 25.2753ZM103.155 24.6204H99.1969C99.2966 24.2076 99.4959 23.8659 99.7521 23.5954C100.122 23.2253 100.621 23.0259 101.233 23.0259C101.802 23.0259 102.272 23.2253 102.614 23.5669C102.884 23.8374 103.069 24.1791 103.155 24.6204Z" fill="white"/>
</svg>
